<mxfile host="app.diagrams.net" modified="2024-01-08T11:05:21.084Z" agent="Mozilla/5.0 (X11; Linux x86_64) AppleWebKit/537.36 (KHTML, like Gecko) Chrome/120.0.0.0 Safari/537.36" etag="pW0_xGHxwjqHGE4t0F3s" version="22.1.17" type="device">
  <diagram name="Architecture" id="CKOwGVDVk4OWQvsBjlr9">
    <mxGraphModel dx="640" dy="277" grid="1" gridSize="10" guides="1" tooltips="1" connect="1" arrows="1" fold="1" page="1" pageScale="1" pageWidth="850" pageHeight="1100" math="0" shadow="0">
      <root>
        <mxCell id="0" />
        <mxCell id="1" parent="0" />
        <mxCell id="V2XP5RtjtoZQ21mpzTwn-10" style="edgeStyle=orthogonalEdgeStyle;rounded=0;orthogonalLoop=1;jettySize=auto;html=1;exitX=0.5;exitY=0;exitDx=0;exitDy=0;entryX=0.5;entryY=1;entryDx=0;entryDy=0;" parent="1" source="V2XP5RtjtoZQ21mpzTwn-3" target="V2XP5RtjtoZQ21mpzTwn-9" edge="1">
          <mxGeometry relative="1" as="geometry" />
        </mxCell>
        <mxCell id="V2XP5RtjtoZQ21mpzTwn-20" style="edgeStyle=orthogonalEdgeStyle;rounded=0;orthogonalLoop=1;jettySize=auto;html=1;exitX=1;exitY=0.25;exitDx=0;exitDy=0;entryX=0;entryY=0.25;entryDx=0;entryDy=0;" parent="1" source="V2XP5RtjtoZQ21mpzTwn-3" target="V2XP5RtjtoZQ21mpzTwn-4" edge="1">
          <mxGeometry relative="1" as="geometry" />
        </mxCell>
        <mxCell id="V2XP5RtjtoZQ21mpzTwn-22" value="Start game" style="edgeLabel;html=1;align=center;verticalAlign=middle;resizable=0;points=[];" parent="V2XP5RtjtoZQ21mpzTwn-20" vertex="1" connectable="0">
          <mxGeometry x="-0.1889" relative="1" as="geometry">
            <mxPoint x="23" y="-10" as="offset" />
          </mxGeometry>
        </mxCell>
        <mxCell id="V2XP5RtjtoZQ21mpzTwn-3" value="Web App" style="rounded=0;whiteSpace=wrap;html=1;" parent="1" vertex="1">
          <mxGeometry x="200" y="120" width="160" height="80" as="geometry" />
        </mxCell>
        <mxCell id="V2XP5RtjtoZQ21mpzTwn-23" style="edgeStyle=orthogonalEdgeStyle;rounded=0;orthogonalLoop=1;jettySize=auto;html=1;exitX=0;exitY=0.75;exitDx=0;exitDy=0;entryX=1;entryY=0.75;entryDx=0;entryDy=0;" parent="1" source="V2XP5RtjtoZQ21mpzTwn-4" target="V2XP5RtjtoZQ21mpzTwn-3" edge="1">
          <mxGeometry relative="1" as="geometry" />
        </mxCell>
        <mxCell id="V2XP5RtjtoZQ21mpzTwn-24" value="Update player&lt;br&gt;stats after game" style="edgeLabel;html=1;align=center;verticalAlign=middle;resizable=0;points=[];" parent="V2XP5RtjtoZQ21mpzTwn-23" vertex="1" connectable="0">
          <mxGeometry x="0.1333" y="-3" relative="1" as="geometry">
            <mxPoint x="15" y="-12" as="offset" />
          </mxGeometry>
        </mxCell>
        <mxCell id="OHJg9NRpOWQrqeM8ki1A-9" style="edgeStyle=orthogonalEdgeStyle;rounded=0;orthogonalLoop=1;jettySize=auto;html=1;exitX=0.25;exitY=1;exitDx=0;exitDy=0;entryX=0.5;entryY=0;entryDx=0;entryDy=0;" edge="1" parent="1" source="V2XP5RtjtoZQ21mpzTwn-4" target="V2XP5RtjtoZQ21mpzTwn-29">
          <mxGeometry relative="1" as="geometry">
            <Array as="points">
              <mxPoint x="680" y="220" />
              <mxPoint x="460" y="220" />
              <mxPoint x="460" y="340" />
              <mxPoint x="420" y="340" />
            </Array>
          </mxGeometry>
        </mxCell>
        <mxCell id="OHJg9NRpOWQrqeM8ki1A-10" style="edgeStyle=orthogonalEdgeStyle;rounded=0;orthogonalLoop=1;jettySize=auto;html=1;exitX=0.75;exitY=1;exitDx=0;exitDy=0;entryX=0.5;entryY=0;entryDx=0;entryDy=0;" edge="1" parent="1" source="V2XP5RtjtoZQ21mpzTwn-4" target="V2XP5RtjtoZQ21mpzTwn-35">
          <mxGeometry relative="1" as="geometry">
            <Array as="points">
              <mxPoint x="760" y="240" />
              <mxPoint x="540" y="240" />
              <mxPoint x="540" y="340" />
              <mxPoint x="580" y="340" />
            </Array>
          </mxGeometry>
        </mxCell>
        <mxCell id="V2XP5RtjtoZQ21mpzTwn-4" value="Game Service" style="rounded=0;whiteSpace=wrap;html=1;" parent="1" vertex="1">
          <mxGeometry x="640" y="120" width="160" height="80" as="geometry" />
        </mxCell>
        <mxCell id="V2XP5RtjtoZQ21mpzTwn-9" value="MySQL" style="shape=datastore;whiteSpace=wrap;html=1;" parent="1" vertex="1">
          <mxGeometry x="250" y="10" width="60" height="60" as="geometry" />
        </mxCell>
        <mxCell id="V2XP5RtjtoZQ21mpzTwn-25" value="" style="shape=link;html=1;rounded=0;" parent="1" edge="1">
          <mxGeometry width="100" relative="1" as="geometry">
            <mxPoint x="440" y="320" as="sourcePoint" />
            <mxPoint x="440" y="40" as="targetPoint" />
          </mxGeometry>
        </mxCell>
        <mxCell id="V2XP5RtjtoZQ21mpzTwn-26" value="" style="shape=link;html=1;rounded=0;" parent="1" edge="1">
          <mxGeometry width="100" relative="1" as="geometry">
            <mxPoint x="560" y="320" as="sourcePoint" />
            <mxPoint x="560" y="40" as="targetPoint" />
          </mxGeometry>
        </mxCell>
        <mxCell id="V2XP5RtjtoZQ21mpzTwn-27" value="Message Broker&lt;br&gt;&lt;font style=&quot;font-size: 10px;&quot;&gt;(Redis, SQS,&lt;br&gt;Service Bus, etc.)&lt;/font&gt;" style="rounded=0;whiteSpace=wrap;html=1;" parent="1" vertex="1">
          <mxGeometry x="440" y="40" width="120" height="60" as="geometry" />
        </mxCell>
        <mxCell id="V2XP5RtjtoZQ21mpzTwn-28" value="" style="endArrow=none;html=1;rounded=0;" parent="1" edge="1">
          <mxGeometry width="50" height="50" relative="1" as="geometry">
            <mxPoint x="440" y="320" as="sourcePoint" />
            <mxPoint x="560" y="320" as="targetPoint" />
          </mxGeometry>
        </mxCell>
        <mxCell id="OHJg9NRpOWQrqeM8ki1A-7" style="edgeStyle=orthogonalEdgeStyle;rounded=0;orthogonalLoop=1;jettySize=auto;html=1;exitX=0.5;exitY=0;exitDx=0;exitDy=0;entryX=0.25;entryY=1;entryDx=0;entryDy=0;" edge="1" parent="1" source="V2XP5RtjtoZQ21mpzTwn-29" target="V2XP5RtjtoZQ21mpzTwn-4">
          <mxGeometry relative="1" as="geometry">
            <Array as="points">
              <mxPoint x="420" y="340" />
              <mxPoint x="460" y="340" />
              <mxPoint x="460" y="220" />
              <mxPoint x="680" y="220" />
            </Array>
          </mxGeometry>
        </mxCell>
        <mxCell id="V2XP5RtjtoZQ21mpzTwn-29" value="Web&lt;br&gt;Game Frontend" style="rounded=0;whiteSpace=wrap;html=1;" parent="1" vertex="1">
          <mxGeometry x="360" y="360" width="120" height="40" as="geometry" />
        </mxCell>
        <mxCell id="OHJg9NRpOWQrqeM8ki1A-8" style="edgeStyle=orthogonalEdgeStyle;rounded=0;orthogonalLoop=1;jettySize=auto;html=1;exitX=0.5;exitY=0;exitDx=0;exitDy=0;entryX=0.75;entryY=1;entryDx=0;entryDy=0;" edge="1" parent="1" source="V2XP5RtjtoZQ21mpzTwn-35" target="V2XP5RtjtoZQ21mpzTwn-4">
          <mxGeometry relative="1" as="geometry">
            <Array as="points">
              <mxPoint x="580" y="340" />
              <mxPoint x="540" y="340" />
              <mxPoint x="540" y="240" />
              <mxPoint x="760" y="240" />
            </Array>
          </mxGeometry>
        </mxCell>
        <mxCell id="V2XP5RtjtoZQ21mpzTwn-35" value="Discord Bot&lt;br&gt;Game Frontend" style="rounded=0;whiteSpace=wrap;html=1;" parent="1" vertex="1">
          <mxGeometry x="520" y="360" width="120" height="40" as="geometry" />
        </mxCell>
      </root>
    </mxGraphModel>
  </diagram>
</mxfile>
